# xmcd
#
# Track frame offsets:
#	150
#	10269
#	25468
#	40094
#	55397
#	68000
#	79979
#	95266
#	111449
#	127138
#	139056
#	152386
#	168852
#	180833
#	196006
#	221388
#	240410
#
# Disc length: 3411 seconds
#
# Revision: 1
# Processed by: cddbd v1.5.2PL0 Copyright (c) Steve Scherf et al.
# Submitted via: audiograbber 1.83.01
#
DISCID=d70d5111
DTITLE=Various Artist - Kross Kut Records Vol 3
DYEAR=2008
DGENRE=Country
TTITLE0=Charley Boyter - Didgert Goor
TTITLE1=Neil Buttsworth - Wondering
TTITLE2=Tarscha - Pickin' Up The Peices
TTITLE3=Ken 'Chainshaw' Lindsay - These Old Hands
TTITLE4=Glenn  Jones - Black Snow Town
TTITLE5=Alisha Smith - Lornas Waltz
TTITLE6=Keith Jamieson - Augathella Fella
TTITLE7=Lloyd Back - Stil Small Hours
TTITLE8=Terry Gordon - Dance With Me
TTITLE9=Col Edmonds - The Girl In The Jukebox
TTITLE10=Borris Bajric - You'll Hear It On The Radio
TTITLE11=John  and Avon Kilcullen - Camooweal
TTITLE12=Daisy May - Thats My Deal
TTITLE13=Royce Everingham - Blue Dogs Jeans
TTITLE14=Rachel Richards - Last Horse Standing
TTITLE15=Texas Rose - Billy Liner Blues
TTITLE16=Peter Salata - Freight Liner Blues
EXTD=
EXTT0=
EXTT1=
EXTT2=
EXTT3=
EXTT4=
EXTT5=
EXTT6=
EXTT7=
EXTT8=
EXTT9=
EXTT10=
EXTT11=
EXTT12=
EXTT13=
EXTT14=
EXTT15=
EXTT16=
PLAYORDER=
